<svg width="42" height="42" viewBox="0 0 42 42" fill="none" xmlns="http://www.w3.org/2000/svg">
<mask id="mask0_287_101" style="mask-type:alpha" maskUnits="userSpaceOnUse" x="0" y="0" width="42" height="42">
<rect x="0.460449" width="41.0793" height="41.0793" fill="#D9D9D9"/>
</mask>
<g mask="url(#mask0_287_101)">
<path d="M15.8652 27.3861H26.1351C26.62 27.3861 27.0266 27.2221 27.3546 26.894C27.6827 26.566 27.8467 26.1595 27.8467 25.6745V18.8279C27.8467 18.343 27.6827 17.9365 27.3546 17.6084C27.0266 17.2803 26.62 17.1163 26.1351 17.1163H24.4234V15.4047C24.4234 14.9197 24.2594 14.5132 23.9313 14.1851C23.6033 13.8571 23.1968 13.693 22.7118 13.693H19.2885C18.8035 13.693 18.397 13.8571 18.069 14.1851C17.7409 14.5132 17.5769 14.9197 17.5769 15.4047V17.1163H15.8652C15.3803 17.1163 14.9738 17.2803 14.6457 17.6084C14.3176 17.9365 14.1536 18.343 14.1536 18.8279V25.6745C14.1536 26.1595 14.3176 26.566 14.6457 26.894C14.9738 27.2221 15.3803 27.3861 15.8652 27.3861ZM19.2885 17.1163V15.4047H22.7118V17.1163H19.2885ZM14.1536 32.5211C10.8159 32.5211 7.98456 31.3586 5.65958 29.0336C3.33461 26.7086 2.17212 23.8773 2.17212 20.5396C2.17212 17.2019 3.33461 14.3705 5.65958 12.0456C7.98456 9.72059 10.8159 8.55811 14.1536 8.55811H27.8467C31.1844 8.55811 34.0157 9.72059 36.3407 12.0456C38.6657 14.3705 39.8282 17.2019 39.8282 20.5396C39.8282 23.8773 38.6657 26.7086 36.3407 29.0336C34.0157 31.3586 31.1844 32.5211 27.8467 32.5211H14.1536ZM14.1536 29.0978H27.8467C30.2145 29.0978 32.2328 28.2634 33.9016 26.5945C35.5705 24.9257 36.4049 22.9073 36.4049 20.5396C36.4049 18.1718 35.5705 16.1535 33.9016 14.4847C32.2328 12.8158 30.2145 11.9814 27.8467 11.9814H14.1536C11.7858 11.9814 9.76752 12.8158 8.09867 14.4847C6.42982 16.1535 5.5954 18.1718 5.5954 20.5396C5.5954 22.9073 6.42982 24.9257 8.09867 26.5945C9.76752 28.2634 11.7858 29.0978 14.1536 29.0978Z" fill="white"/>
</g>
</svg>
