<svg width="162" height="30" viewBox="0 0 162 30" fill="none" xmlns="http://www.w3.org/2000/svg">
<path d="M15 2.5L18.8625 10.325L27.5 11.5875L21.25 17.675L22.725 26.275L15 22.2125L7.275 26.275L8.75 17.675L2.5 11.5875L11.1375 10.325L15 2.5Z" fill="#FFA033" stroke="#FFA033" stroke-linecap="round" stroke-linejoin="round"/>
<path d="M48.5001 2.5L52.2338 10.325L60.5834 11.5875L54.5417 17.675L55.9676 26.275L48.5001 22.2125L41.0326 26.275L42.4584 17.675L36.4167 11.5875L44.7663 10.325L48.5001 2.5Z" fill="#FFA033" stroke="#FFA033" stroke-linecap="round" stroke-linejoin="round"/>
<path d="M81.5001 2.5L85.2338 10.325L93.5834 11.5875L87.5417 17.675L88.9676 26.275L81.5001 22.2125L74.0326 26.275L75.4584 17.675L69.4167 11.5875L77.7663 10.325L81.5001 2.5Z" fill="#FFA033" stroke="#FFA033" stroke-linecap="round" stroke-linejoin="round"/>
<path d="M114.5 2.5L118.234 10.325L126.583 11.5875L120.542 17.675L121.967 26.275L114.5 22.2125L107.032 26.275L108.458 17.675L102.417 11.5875L110.766 10.325L114.5 2.5Z" fill="#FFA033" stroke="#FFA033" stroke-linecap="round" stroke-linejoin="round"/>
<path d="M147.5 2.5L151.234 10.325L159.583 11.5875L153.542 17.675L154.967 26.275L147.5 22.2125L140.032 26.275L141.458 17.675L135.417 11.5875L143.766 10.325L147.5 2.5Z" fill="#FFA033" stroke="#FFA033" stroke-linecap="round" stroke-linejoin="round"/>
</svg>
