<svg width="42" height="42" viewBox="0 0 42 42" fill="none" xmlns="http://www.w3.org/2000/svg">
<mask id="mask0_287_110" style="mask-type:alpha" maskUnits="userSpaceOnUse" x="0" y="0" width="42" height="42">
<rect x="0.460449" width="41.0793" height="41.0793" fill="#D9D9D9"/>
</mask>
<g mask="url(#mask0_287_110)">
<path d="M2.08651 22.7647C1.57301 21.7377 1.17363 20.6964 0.888359 19.6409C0.603086 18.5854 0.460449 17.5156 0.460449 16.4316C0.460449 13.2365 1.54449 10.555 3.71256 8.38688C5.88064 6.2188 8.56221 5.13477 11.7573 5.13477C13.5545 5.13477 15.2661 5.51275 16.8922 6.26873C18.5182 7.0247 19.8876 8.07308 21.0001 9.41386C22.1127 8.07308 23.482 7.0247 25.1081 6.26873C26.7341 5.51275 28.4458 5.13477 30.243 5.13477C33.438 5.13477 36.1196 6.2188 38.2877 8.38688C40.4558 10.555 41.5398 13.2365 41.5398 16.4316C41.5398 17.5156 41.3972 18.5854 41.1119 19.6409C40.8266 20.6964 40.4272 21.7377 39.9137 22.7647C39.5999 22.2226 39.2291 21.7377 38.8012 21.3098C38.3733 20.8818 37.874 20.5395 37.3035 20.2828C37.5602 19.6266 37.7599 18.9848 37.9026 18.3572C38.0452 17.7296 38.1165 17.0877 38.1165 16.4316C38.1165 14.2065 37.3605 12.3379 35.8486 10.826C34.3366 9.31402 32.4681 8.55804 30.243 8.55804C27.9323 8.55804 26.1564 9.19278 24.9155 10.4622C23.6746 11.7317 22.3694 13.1509 21.0001 14.7199C19.6308 13.1224 18.3257 11.6961 17.0847 10.4408C15.8438 9.18565 14.068 8.55804 11.7573 8.55804C9.53214 8.55804 7.6636 9.31402 6.15165 10.826C4.6397 12.3379 3.88373 14.2065 3.88373 16.4316C3.88373 17.0877 3.95505 17.7296 4.09768 18.3572C4.24032 18.9848 4.44001 19.6266 4.69676 20.2828C4.12621 20.5395 3.62698 20.8818 3.19907 21.3098C2.77116 21.7377 2.40031 22.2226 2.08651 22.7647ZM0.460449 37.6559V34.9601C0.460449 33.7049 1.09518 32.6993 2.36465 31.9433C3.63411 31.1873 5.28157 30.8094 7.30701 30.8094C7.67786 30.8094 8.03445 30.8165 8.37678 30.8308C8.71911 30.845 9.04717 30.8807 9.36097 30.9377C8.96159 31.5083 8.66206 32.1216 8.46236 32.7777C8.26267 33.4339 8.16283 34.1328 8.16283 34.8745V37.6559H0.460449ZM10.7303 37.6559V34.8745C10.7303 33.0202 11.6788 31.5225 13.5759 30.3814C15.473 29.2404 17.9477 28.6698 21.0001 28.6698C24.0811 28.6698 26.563 29.2404 28.4458 30.3814C30.3286 31.5225 31.27 33.0202 31.27 34.8745V37.6559H10.7303ZM33.8374 37.6559V34.8745C33.8374 34.1328 33.7447 33.4339 33.5593 32.7777C33.3738 32.1216 33.0957 31.5083 32.7249 30.9377C33.0387 30.8807 33.3596 30.845 33.6876 30.8308C34.0157 30.8165 34.3509 30.8094 34.6932 30.8094C36.7472 30.8094 38.4018 31.1873 39.657 31.9433C40.9122 32.6993 41.5398 33.7049 41.5398 34.9601V37.6559H33.8374ZM21.0001 32.0931C19.3741 32.0931 17.9192 32.307 16.6354 32.735C15.3517 33.1629 14.5957 33.6621 14.3675 34.2326H27.6755C27.4188 33.6621 26.6557 33.1629 25.3862 32.735C24.1167 32.307 22.6547 32.0931 21.0001 32.0931ZM7.30701 29.0977C6.36561 29.0977 5.55971 28.7625 4.88932 28.0921C4.21892 27.4217 3.88373 26.6158 3.88373 25.6744C3.88373 24.7045 4.21892 23.8915 4.88932 23.2354C5.55971 22.5792 6.36561 22.2512 7.30701 22.2512C8.27694 22.2512 9.08996 22.5792 9.74609 23.2354C10.4022 23.8915 10.7303 24.7045 10.7303 25.6744C10.7303 26.6158 10.4022 27.4217 9.74609 28.0921C9.08996 28.7625 8.27694 29.0977 7.30701 29.0977ZM34.6932 29.0977C33.7518 29.0977 32.9459 28.7625 32.2755 28.0921C31.6052 27.4217 31.27 26.6158 31.27 25.6744C31.27 24.7045 31.6052 23.8915 32.2755 23.2354C32.9459 22.5792 33.7518 22.2512 34.6932 22.2512C35.6632 22.2512 36.4762 22.5792 37.1323 23.2354C37.7885 23.8915 38.1165 24.7045 38.1165 25.6744C38.1165 26.6158 37.7885 27.4217 37.1323 28.0921C36.4762 28.7625 35.6632 29.0977 34.6932 29.0977ZM21.0001 27.3861C19.5738 27.3861 18.3613 26.8869 17.3629 25.8884C16.3644 24.8899 15.8652 23.6775 15.8652 22.2512C15.8652 20.7963 16.3644 19.5767 17.3629 18.5925C18.3613 17.6083 19.5738 17.1162 21.0001 17.1162C22.455 17.1162 23.6746 17.6083 24.6588 18.5925C25.6429 19.5767 26.135 20.7963 26.135 22.2512C26.135 23.6775 25.6429 24.8899 24.6588 25.8884C23.6746 26.8869 22.455 27.3861 21.0001 27.3861ZM21.0001 20.5395C20.5152 20.5395 20.1086 20.7036 19.7806 21.0316C19.4525 21.3597 19.2885 21.7662 19.2885 22.2512C19.2885 22.7361 19.4525 23.1426 19.7806 23.4707C20.1086 23.7988 20.5152 23.9628 21.0001 23.9628C21.4851 23.9628 21.8916 23.7988 22.2197 23.4707C22.5477 23.1426 22.7118 22.7361 22.7118 22.2512C22.7118 21.7662 22.5477 21.3597 22.2197 21.0316C21.8916 20.7036 21.4851 20.5395 21.0001 20.5395Z" fill="white"/>
</g>
</svg>
