<svg width="36" height="36" viewBox="0 0 36 36" fill="none" xmlns="http://www.w3.org/2000/svg">
<g clip-path="url(#clip0_58_590)">
<path fill-rule="evenodd" clip-rule="evenodd" d="M17.9312 35.9999L17.9473 35.9999H17.9418L17.9312 35.9999ZM18.0582 35.9999H18.0527L18.0688 35.9999L18.0582 35.9999ZM17.8763 35.9996L17.8936 35.9996H17.8836L17.8763 35.9996ZM18.1164 35.9996H18.1064L18.1238 35.9996L18.1164 35.9996ZM17.8232 35.9992L17.8348 35.9992L17.8256 35.9992H17.8232ZM18.1744 35.9992L18.1652 35.9992L18.1768 35.9992H18.1744ZM18.2325 35.9985L18.2284 35.9986L18.2441 35.9984L18.2325 35.9985ZM17.7559 35.9984L17.7716 35.9986L17.7675 35.9985L17.7559 35.9984ZM18.2905 35.9977L18.281 35.9978L18.3004 35.9975L18.2905 35.9977ZM17.6996 35.9975L17.719 35.9978L17.7095 35.9977L17.6996 35.9975ZM18.3485 35.9967L18.3357 35.9969L18.3535 35.9966L18.3485 35.9967ZM17.6465 35.9966L17.6643 35.9969L17.6515 35.9967L17.6465 35.9966ZM17.5806 35.9952L17.5964 35.9956L17.5936 35.9955L17.5806 35.9952ZM18.4064 35.9955L18.4036 35.9956L18.4194 35.9952L18.4064 35.9955ZM17.5228 35.9937L17.5445 35.9943L17.5357 35.9941L17.5228 35.9937ZM18.4643 35.9941L18.4555 35.9943L18.4772 35.9937L18.4643 35.9941ZM18.5221 35.9925L18.508 35.993L18.5302 35.9923L18.5221 35.9925ZM17.4698 35.9923L17.492 35.993L17.4779 35.9925L17.4698 35.9923ZM17.4191 35.9908L17.435 35.9913L17.4201 35.9908L17.4064 35.9904L17.4191 35.9908ZM18.5799 35.9908L18.565 35.9913L18.5809 35.9908L18.5936 35.9904L18.5799 35.9908ZM18.6377 35.9889L18.6298 35.9892L18.654 35.9883L18.6377 35.9889ZM17.346 35.9883L17.3702 35.9892L17.3623 35.9889L17.346 35.9883ZM17.2933 35.9864L17.3187 35.9873L17.3046 35.9868L17.2933 35.9864ZM18.6954 35.9868L18.6813 35.9873L18.7067 35.9864L18.6954 35.9868ZM17.2416 35.9842L17.2665 35.9853L17.247 35.9845L17.2416 35.9842ZM18.753 35.9845L18.7335 35.9853L18.7584 35.9842L18.753 35.9845ZM17.1692 35.9811L17.1959 35.9823L17.1894 35.9821L17.1692 35.9811ZM18.8106 35.9821L18.8041 35.9823L18.8308 35.9811L18.8106 35.9821ZM17.1172 35.9787L17.1449 35.98L17.1319 35.9794L17.1172 35.9787ZM18.8681 35.9794L18.8551 35.98L18.8828 35.9787L18.8681 35.9794ZM17.066 35.9761L17.094 35.9775L17.0743 35.9766L17.066 35.9761ZM18.9257 35.9766L18.906 35.9775L18.934 35.9761L18.9257 35.9766ZM18.9832 35.9736L18.9577 35.9749L18.9803 35.9737L19.0069 35.9722L18.9832 35.9736ZM17.0197 35.9737L17.0423 35.9749L17.0168 35.9736L16.9931 35.9722L17.0197 35.9737ZM19.0406 35.9703L19.0293 35.971L19.0579 35.9693L19.0406 35.9703ZM16.9421 35.9693L16.9707 35.971L16.9594 35.9703L16.9421 35.9693ZM16.8914 35.9663L16.9199 35.968L16.9021 35.967L16.8914 35.9663ZM19.0979 35.967L19.0801 35.968L19.1086 35.9663L19.0979 35.967ZM16.8429 35.9633L16.8686 35.9649L16.8447 35.9634L16.8206 35.9619L16.8429 35.9633ZM19.1553 35.9634L19.1314 35.9649L19.1571 35.9633L19.1794 35.9619L19.1553 35.9634ZM19.2125 35.9597L19.204 35.9603L19.2312 35.9584L19.2125 35.9597ZM16.7688 35.9584L16.796 35.9603L16.7875 35.9597L16.7688 35.9584ZM16.7181 35.9549L16.7449 35.9568L16.7302 35.9558L16.7181 35.9549ZM19.2698 35.9558L19.2551 35.9568L19.2819 35.9549L19.2698 35.9558ZM16.6676 35.9513L16.6921 35.9531L16.6731 35.9518L16.6676 35.9513ZM19.3269 35.9518L19.3079 35.9531L19.3324 35.9513L19.3269 35.9518ZM16.5996 35.9462L16.6211 35.9478L16.6159 35.9475L16.5996 35.9462ZM19.3841 35.9475L19.3789 35.9478L19.4004 35.9462L19.3841 35.9475ZM19.4411 35.943L19.4309 35.9438L19.4527 35.9421L19.4411 35.943ZM16.5473 35.9421L16.5691 35.9438L16.5589 35.943L16.5473 35.9421ZM16.4963 35.9379L16.5149 35.9395L16.5018 35.9384L16.4963 35.9379ZM19.4982 35.9384L19.4851 35.9395L19.5037 35.9379L19.4982 35.9384ZM16.4402 35.9332L16.4457 35.9337L16.4448 35.9336L16.4402 35.9332ZM19.5552 35.9336L19.5543 35.9337L19.5598 35.9332L19.5552 35.9336ZM19.6121 35.9286L19.6071 35.9291L19.6198 35.9279L19.6121 35.9286ZM16.3802 35.9279L16.3929 35.9291L16.3879 35.9286L16.3802 35.9279ZM16.3275 35.9231L16.337 35.9241L16.3311 35.9235L16.3275 35.9231ZM19.6689 35.9235L19.663 35.9241L19.6725 35.9231L19.6689 35.9235ZM15.1875 35.7811C6.58695 34.4293 0 26.9778 0 18C0 8.06555 8.06555 0 18 0C27.9345 0 36 8.06555 36 18C36 26.9778 29.4131 34.4293 20.8125 35.7811V23.2031H25.0066L25.8047 18H20.8125V14.6235C20.8125 13.2 21.5099 11.8125 23.7459 11.8125H26.0156V7.38281C26.0156 7.38281 23.9558 7.03125 21.9864 7.03125C17.8748 7.03125 15.1875 9.52312 15.1875 14.0344V18H10.6172V23.2031H15.1875V35.7811Z" fill="black"/>
</g>
<defs>
<clipPath id="clip0_58_590">
<rect width="36" height="36" fill="white"/>
</clipPath>
</defs>
</svg>
