<svg width="36" height="37" viewBox="0 0 36 37" fill="none" xmlns="http://www.w3.org/2000/svg">
<rect y="0.692383" width="36" height="36" rx="18" fill="#FF4D00"/>
<path d="M17.88 26.6924C17.9467 26.6924 18.0133 26.6757 18.08 26.6424C18.1467 26.6091 18.1967 26.5757 18.23 26.5424L26.43 18.3424C26.63 18.1424 26.7758 17.9174 26.8675 17.6674C26.9592 17.4174 27.005 17.1674 27.005 16.9174C27.005 16.6507 26.9592 16.3965 26.8675 16.1549C26.7758 15.9132 26.63 15.7007 26.43 15.5174L22.18 11.2674C21.9967 11.0674 21.7842 10.9215 21.5425 10.8299C21.3008 10.7382 21.0467 10.6924 20.78 10.6924C20.53 10.6924 20.28 10.7382 20.03 10.8299C19.78 10.9215 19.555 11.0674 19.355 11.2674L19.08 11.5424L20.93 13.4174C21.18 13.6507 21.3633 13.9174 21.48 14.2174C21.5967 14.5174 21.655 14.834 21.655 15.1674C21.655 15.8674 21.4175 16.4549 20.9425 16.9299C20.4675 17.4049 19.88 17.6424 19.18 17.6424C18.8467 17.6424 18.5258 17.5841 18.2175 17.4674C17.9092 17.3507 17.6383 17.1757 17.405 16.9424L15.53 15.0924L11.155 19.4674C11.105 19.5174 11.0675 19.5715 11.0425 19.6299C11.0175 19.6882 11.005 19.7507 11.005 19.8174C11.005 19.9507 11.055 20.0715 11.155 20.1799C11.255 20.2882 11.3717 20.3424 11.505 20.3424C11.5717 20.3424 11.6383 20.3257 11.705 20.2924C11.7717 20.259 11.8217 20.2257 11.855 20.1924L15.255 16.7924L16.655 18.1924L13.28 21.5924C13.23 21.6424 13.1925 21.6965 13.1675 21.7549C13.1425 21.8132 13.13 21.8757 13.13 21.9424C13.13 22.0757 13.18 22.1924 13.28 22.2924C13.38 22.3924 13.4967 22.4424 13.63 22.4424C13.6967 22.4424 13.7633 22.4257 13.83 22.3924C13.8967 22.359 13.9467 22.3257 13.98 22.2924L17.38 18.9174L18.78 20.3174L15.405 23.7174C15.355 23.7507 15.3175 23.8007 15.2925 23.8674C15.2675 23.934 15.255 24.0007 15.255 24.0674C15.255 24.2007 15.305 24.3174 15.405 24.4174C15.505 24.5174 15.6217 24.5674 15.755 24.5674C15.8217 24.5674 15.8842 24.5549 15.9425 24.5299C16.0008 24.5049 16.055 24.4674 16.105 24.4174L19.505 21.0424L20.905 22.4424L17.505 25.8424C17.455 25.8924 17.4175 25.9465 17.3925 26.0049C17.3675 26.0632 17.355 26.1257 17.355 26.1924C17.355 26.3257 17.4092 26.4424 17.5175 26.5424C17.6258 26.6424 17.7467 26.6924 17.88 26.6924ZM17.855 28.6924C17.2383 28.6924 16.6925 28.4882 16.2175 28.0799C15.7425 27.6716 15.4633 27.159 15.38 26.5424C14.8133 26.459 14.3383 26.2257 13.955 25.8424C13.5717 25.459 13.3383 24.984 13.255 24.4174C12.6883 24.334 12.2175 24.0965 11.8425 23.7049C11.4675 23.3132 11.2383 22.8424 11.155 22.2924C10.5217 22.209 10.005 21.9341 9.605 21.4674C9.205 21.0007 9.005 20.4507 9.005 19.8174C9.005 19.484 9.0675 19.1632 9.1925 18.8549C9.3175 18.5465 9.49666 18.2757 9.73 18.0424L15.53 12.2674L18.805 15.5424C18.8383 15.5924 18.8883 15.6299 18.955 15.6549C19.0217 15.6799 19.0883 15.6924 19.155 15.6924C19.305 15.6924 19.43 15.6465 19.53 15.5549C19.63 15.4632 19.68 15.3424 19.68 15.1924C19.68 15.1257 19.6675 15.059 19.6425 14.9924C19.6175 14.9257 19.58 14.8757 19.53 14.8424L15.955 11.2674C15.7717 11.0674 15.5592 10.9215 15.3175 10.8299C15.0758 10.7382 14.8217 10.6924 14.555 10.6924C14.305 10.6924 14.055 10.7382 13.805 10.8299C13.555 10.9215 13.33 11.0674 13.13 11.2674L9.605 14.8174C9.455 14.9674 9.33 15.1424 9.23 15.3424C9.13 15.5424 9.06333 15.7424 9.03 15.9424C8.99666 16.1424 8.99666 16.3465 9.03 16.5549C9.06333 16.7632 9.13 16.959 9.23 17.1424L7.78 18.5924C7.49666 18.2091 7.28833 17.7882 7.155 17.3299C7.02166 16.8715 6.97166 16.409 7.005 15.9424C7.03833 15.4757 7.155 15.0215 7.355 14.5799C7.555 14.1382 7.83 13.7424 8.18 13.3924L11.705 9.86738C12.105 9.48405 12.5508 9.19238 13.0425 8.99238C13.5342 8.79238 14.0383 8.69238 14.555 8.69238C15.0717 8.69238 15.5758 8.79238 16.0675 8.99238C16.5592 9.19238 16.9967 9.48405 17.38 9.86738L17.655 10.1424L17.93 9.86738C18.33 9.48405 18.7758 9.19238 19.2675 8.99238C19.7592 8.79238 20.2633 8.69238 20.78 8.69238C21.2967 8.69238 21.8008 8.79238 22.2925 8.99238C22.7842 9.19238 23.2217 9.48405 23.605 9.86738L27.83 14.0924C28.2133 14.4757 28.505 14.9174 28.705 15.4174C28.905 15.9174 29.005 16.4257 29.005 16.9424C29.005 17.459 28.905 17.9632 28.705 18.4549C28.505 18.9465 28.2133 19.384 27.83 19.7674L19.63 27.9424C19.3967 28.1757 19.1258 28.3591 18.8175 28.4924C18.5092 28.6257 18.1883 28.6924 17.855 28.6924Z" fill="white"/>
</svg>
