<svg width="36" height="37" viewBox="0 0 36 37" fill="none" xmlns="http://www.w3.org/2000/svg">
<rect y="0.236572" width="36" height="36" rx="18" fill="#FF4D00"/>
<path d="M12.5441 17.6946C11.8044 17.6971 11.0778 17.89 10.4341 18.2546C11.3403 15.9091 12.8432 13.8409 14.7941 12.2546C14.9058 12.1627 14.9982 12.0497 15.0661 11.922C15.1341 11.7944 15.1762 11.6546 15.1902 11.5107C15.2041 11.3667 15.1895 11.2215 15.1473 11.0832C15.1051 10.9449 15.0361 10.8162 14.9441 10.7046C14.8522 10.593 14.7392 10.5006 14.6116 10.4326C14.4839 10.3647 14.3441 10.3225 14.2002 10.3086C14.0563 10.2947 13.911 10.3092 13.7727 10.3514C13.6344 10.3936 13.5058 10.4627 13.3941 10.5546C9.39414 13.8046 7.61414 18.3046 7.61414 21.0946C7.62103 22.0811 7.91501 23.0442 8.46018 23.8664C9.00535 24.6886 9.77812 25.3343 10.6841 25.7246C11.2705 26.0087 11.9126 26.1589 12.5641 26.1646C13.1376 26.1925 13.7107 26.1036 14.2488 25.9033C14.7869 25.7031 15.2787 25.3957 15.6944 24.9997C16.1101 24.6037 16.4411 24.1274 16.6672 23.5996C16.8934 23.0719 17.01 22.5037 17.01 21.9296C17.01 21.3555 16.8934 20.7873 16.6672 20.2596C16.4411 19.7319 16.1101 19.2556 15.6944 18.8596C15.2787 18.4636 14.7869 18.1561 14.2488 17.9559C13.7107 17.7556 13.1376 17.6667 12.5641 17.6946H12.5441Z" fill="white"/>
<path d="M23.94 17.7252C23.2002 17.7268 22.4733 17.9197 21.83 18.2852C22.7358 15.9422 24.2348 13.8746 26.18 12.2852C26.3018 12.1974 26.4043 12.0857 26.4812 11.9568C26.5582 11.828 26.6079 11.6847 26.6275 11.5359C26.647 11.3871 26.6358 11.2358 26.5947 11.0915C26.5536 10.9472 26.4834 10.8128 26.3884 10.6966C26.2934 10.5804 26.1756 10.4848 26.0423 10.4159C25.909 10.3469 25.763 10.3059 25.6133 10.2955C25.4635 10.2851 25.3133 10.3054 25.1717 10.3552C25.0301 10.405 24.9002 10.4833 24.79 10.5852C20.79 13.8352 19.01 18.3352 19.01 21.1252C19.0147 22.1005 19.3002 23.0538 19.8321 23.8713C20.3641 24.6888 21.1202 25.3359 22.01 25.7352C22.6112 26.0276 23.2715 26.1781 23.94 26.1752C24.5135 26.2031 25.0866 26.1142 25.6247 25.9139C26.1628 25.7137 26.6546 25.4062 27.0703 25.0102C27.486 24.6142 27.817 24.1379 28.0431 23.6102C28.2693 23.0825 28.3859 22.5143 28.3859 21.9402C28.3859 21.3661 28.2693 20.7979 28.0431 20.2702C27.817 19.7424 27.486 19.2661 27.0703 18.8701C26.6546 18.4741 26.1628 18.1667 25.6247 17.9664C25.0866 17.7662 24.5135 17.6773 23.94 17.7052V17.7252Z" fill="white"/>
</svg>
