<svg width="160" height="33" viewBox="0 0 160 33" fill="none" xmlns="http://www.w3.org/2000/svg">
<path d="M11.1733 11.9545C11.0753 11.1268 10.6778 10.4843 9.98083 10.0269C9.28386 9.56951 8.42898 9.34082 7.4162 9.34082C6.67567 9.34082 6.0277 9.46061 5.47231 9.7002C4.92235 9.93978 4.49219 10.2692 4.18182 10.6885C3.8769 11.1077 3.72444 11.5842 3.72444 12.1178C3.72444 12.5643 3.83062 12.9482 4.04297 13.2694C4.26078 13.5853 4.53848 13.8493 4.87607 14.0617C5.21367 14.2686 5.5676 14.4401 5.93786 14.5763C6.30813 14.7069 6.64844 14.8131 6.95881 14.8948L8.65768 15.3522C9.09328 15.4665 9.57789 15.6244 10.1115 15.8259C10.6506 16.0274 11.1651 16.3024 11.6552 16.6508C12.1507 16.9939 12.5591 17.4349 12.8803 17.974C13.2016 18.5131 13.3622 19.1746 13.3622 19.9587C13.3622 20.8626 13.1254 21.6794 12.6516 22.409C12.1834 23.1386 11.4973 23.7185 10.5934 24.1487C9.69496 24.5789 8.60323 24.7939 7.31819 24.7939C6.12027 24.7939 5.08298 24.6006 4.20633 24.214C3.33511 23.8274 2.64903 23.2884 2.14809 22.5969C1.65259 21.9053 1.37216 21.1022 1.30682 20.1874H3.39773C3.45218 20.819 3.66454 21.3418 4.03481 21.7556C4.41052 22.164 4.88424 22.4689 5.45597 22.6704C6.03315 22.8664 6.65389 22.9644 7.31819 22.9644C8.09139 22.9644 8.78564 22.8392 9.40093 22.5887C10.0162 22.3328 10.5036 21.9788 10.8629 21.5269C11.2223 21.0695 11.402 20.5359 11.402 19.926C11.402 19.3707 11.2468 18.9187 10.9364 18.5702C10.6261 18.2217 10.2177 17.9386 9.7113 17.7208C9.20491 17.503 8.65768 17.3124 8.06961 17.1491L6.01137 16.561C4.70455 16.1853 3.66999 15.6489 2.90768 14.952C2.14537 14.255 1.76421 13.343 1.76421 12.2158C1.76421 11.2793 2.01741 10.4625 2.5238 9.76554C3.03564 9.06312 3.72171 8.51861 4.58204 8.13201C5.4478 7.73997 6.4143 7.54395 7.48154 7.54395C8.55966 7.54395 9.518 7.73725 10.3565 8.12385C11.1951 8.505 11.8594 9.02773 12.3494 9.69203C12.8449 10.3563 13.1063 11.1105 13.1335 11.9545H11.1733Z" fill="black"/>
<path d="M24.9909 29.2045V22.5724H24.8275C24.6859 22.801 24.4845 23.0896 24.2231 23.4381C23.9617 23.7812 23.5888 24.0888 23.1041 24.3611C22.6195 24.6279 21.9743 24.7613 21.1684 24.7613C20.123 24.7613 19.2 24.4972 18.3996 23.969C17.5992 23.4354 16.973 22.684 16.521 21.7148C16.0691 20.7401 15.8431 19.5885 15.8431 18.2599C15.8431 16.9421 16.0691 15.7987 16.521 14.8295C16.973 13.8602 17.6019 13.1115 18.4078 12.5834C19.2136 12.0552 20.1447 11.7911 21.2011 11.7911C22.0178 11.7911 22.6631 11.9272 23.1368 12.1995C23.616 12.4663 23.9808 12.7712 24.2313 13.1143C24.4872 13.4519 24.6859 13.7296 24.8275 13.9474H25.0562V11.9545H26.9184V29.2045H24.9909ZM21.4298 23.0297C22.203 23.0297 22.8564 22.8283 23.39 22.4253C23.9236 22.017 24.3293 21.4534 24.607 20.7346C24.8847 20.0104 25.0235 19.1746 25.0235 18.2272C25.0235 17.2906 24.8874 16.4711 24.6152 15.7687C24.3429 15.0609 23.94 14.5109 23.4063 14.1189C22.8727 13.7214 22.2139 13.5226 21.4298 13.5226C20.613 13.5226 19.9324 13.7323 19.3879 14.1515C18.8488 14.5654 18.4432 15.1289 18.1709 15.8422C17.9041 16.5501 17.7707 17.3451 17.7707 18.2272C17.7707 19.1202 17.9068 19.9315 18.1791 20.6611C18.4568 21.3853 18.8652 21.9625 19.4042 22.3927C19.9487 22.8174 20.6239 23.0297 21.4298 23.0297Z" fill="black"/>
<path d="M38.3531 19.3707V11.9545H40.2806V24.4999H38.3531V22.3763H38.2224C37.9284 23.0134 37.471 23.5552 36.8502 24.0017C36.2295 24.4427 35.4454 24.6633 34.498 24.6633C33.7139 24.6633 33.0169 24.4917 32.4071 24.1487C31.7972 23.8002 31.318 23.2775 30.9696 22.5805C30.6211 21.8781 30.4468 20.9933 30.4468 19.926V11.9545H32.3744V19.7954C32.3744 20.7101 32.6303 21.4398 33.1421 21.9843C33.6594 22.5288 34.3183 22.801 35.1187 22.801C35.5979 22.801 36.0852 22.6785 36.5807 22.4335C37.0817 22.1885 37.5009 21.8128 37.8385 21.3064C38.1816 20.8 38.3531 20.1547 38.3531 19.3707Z" fill="black"/>
<path d="M47.5028 24.7939C46.7079 24.7939 45.9864 24.6442 45.3384 24.3447C44.6905 24.0398 44.1759 23.6015 43.7948 23.0297C43.4136 22.4526 43.223 21.7556 43.223 20.9388C43.223 20.2201 43.3646 19.6375 43.6477 19.191C43.9309 18.739 44.3093 18.3851 44.783 18.1292C45.2568 17.8733 45.7795 17.6827 46.3512 17.5574C46.9284 17.4268 47.5083 17.3233 48.0909 17.2471C48.8532 17.1491 49.4712 17.0756 49.945 17.0265C50.4241 16.9721 50.7726 16.8823 50.9904 16.757C51.2137 16.6318 51.3253 16.414 51.3253 16.1036V16.0383C51.3253 15.2324 51.1048 14.6062 50.6637 14.1597C50.2281 13.7132 49.5665 13.49 48.679 13.49C47.7588 13.49 47.0373 13.6914 46.5146 14.0944C45.9918 14.4973 45.6243 14.9275 45.4119 15.3849L43.5824 14.7314C43.9091 13.9691 44.3447 13.3756 44.8892 12.9509C45.4392 12.5207 46.0381 12.2213 46.6861 12.0525C47.3395 11.8782 47.982 11.7911 48.6136 11.7911C49.0166 11.7911 49.4794 11.8401 50.0021 11.9381C50.5303 12.0307 51.0394 12.224 51.5295 12.518C52.025 12.8121 52.4361 13.2558 52.7628 13.8493C53.0895 14.4429 53.2528 15.2378 53.2528 16.2343V24.4999H51.3253V22.801H51.2273C51.0966 23.0733 50.8788 23.3646 50.5739 23.675C50.2689 23.9854 49.8633 24.2494 49.3569 24.4672C48.8505 24.685 48.2325 24.7939 47.5028 24.7939ZM47.7969 23.0624C48.5592 23.0624 49.2017 22.9127 49.7244 22.6132C50.2526 22.3137 50.6501 21.9271 50.9169 21.4534C51.1892 20.9797 51.3253 20.4814 51.3253 19.9587V18.1945C51.2436 18.2925 51.0639 18.3824 50.7862 18.464C50.514 18.5403 50.1982 18.6083 49.8388 18.6682C49.4849 18.7227 49.1391 18.7717 48.8015 18.8153C48.4693 18.8534 48.1998 18.886 47.9929 18.9133C47.492 18.9786 47.0237 19.0848 46.5881 19.2318C46.1579 19.3734 45.8094 19.5885 45.5426 19.877C45.2813 20.1602 45.1506 20.5468 45.1506 21.0368C45.1506 21.7066 45.3983 22.213 45.8938 22.556C46.3948 22.8936 47.0291 23.0624 47.7969 23.0624Z" fill="black"/>
<path d="M61.5083 24.7613C60.4628 24.7613 59.5399 24.4972 58.7394 23.969C57.939 23.4354 57.3128 22.684 56.8609 21.7148C56.4089 20.7401 56.183 19.5885 56.183 18.2599C56.183 16.9421 56.4089 15.7987 56.8609 14.8295C57.3128 13.8602 57.9417 13.1115 58.7476 12.5834C59.5535 12.0552 60.4846 11.7911 61.5409 11.7911C62.3577 11.7911 63.0029 11.9272 63.4767 12.1995C63.9558 12.4663 64.3206 12.7712 64.5711 13.1143C64.827 13.4519 65.0258 13.7296 65.1674 13.9474H65.3307V7.77264H67.2583V24.4999H65.396V22.5724H65.1674C65.0258 22.801 64.8243 23.0896 64.563 23.4381C64.3016 23.7812 63.9286 24.0888 63.444 24.3611C62.9594 24.6279 62.3141 24.7613 61.5083 24.7613ZM61.7696 23.0297C62.5428 23.0297 63.1962 22.8283 63.7299 22.4253C64.2635 22.017 64.6691 21.4534 64.9468 20.7346C65.2245 20.0104 65.3634 19.1746 65.3634 18.2272C65.3634 17.2906 65.2272 16.4711 64.955 15.7687C64.6827 15.0609 64.2798 14.5109 63.7462 14.1189C63.2126 13.7214 62.5537 13.5226 61.7696 13.5226C60.9529 13.5226 60.2722 13.7323 59.7277 14.1515C59.1887 14.5654 58.783 15.1289 58.5107 15.8422C58.2439 16.5501 58.1105 17.3451 58.1105 18.2272C58.1105 19.1202 58.2467 19.9315 58.5189 20.6611C58.7966 21.3853 59.205 21.9625 59.7441 22.3927C60.2886 22.8174 60.9638 23.0297 61.7696 23.0297Z" fill="black"/>
<path d="M78.7664 7.77264L83.0789 14.7314H83.2096L87.5221 7.77264H89.9071L84.6471 16.1363L89.9071 24.4999H87.5221L83.2096 17.6718H83.0789L78.7664 24.4999H76.3815L81.7721 16.1363L76.3815 7.77264H78.7664Z" fill="black"/>
<path d="M112.472 12.9999H110.447C110.327 12.4173 110.117 11.9055 109.818 11.4644C109.524 11.0233 109.164 10.6531 108.74 10.3536C108.32 10.0487 107.855 9.81999 107.343 9.66753C106.831 9.51506 106.297 9.43883 105.742 9.43883C104.729 9.43883 103.812 9.69475 102.99 10.2066C102.173 10.7184 101.522 11.4726 101.037 12.469C100.558 13.4655 100.319 14.6879 100.319 16.1363C100.319 17.5847 100.558 18.8071 101.037 19.8035C101.522 20.8 102.173 21.5541 102.99 22.066C103.812 22.5778 104.729 22.8337 105.742 22.8337C106.297 22.8337 106.831 22.7575 107.343 22.605C107.855 22.4526 108.32 22.2266 108.74 21.9271C109.164 21.6222 109.524 21.2492 109.818 20.8082C110.117 20.3617 110.327 19.8498 110.447 19.2726H112.472C112.32 20.1275 112.042 20.8925 111.639 21.5677C111.236 22.2429 110.735 22.8174 110.136 23.2911C109.537 23.7594 108.865 24.116 108.119 24.3611C107.378 24.6061 106.586 24.7286 105.742 24.7286C104.315 24.7286 103.047 24.3801 101.936 23.6832C100.825 22.9862 99.9512 21.9952 99.3141 20.7101C98.677 19.4251 98.3585 17.9005 98.3585 16.1363C98.3585 14.3721 98.677 12.8474 99.3141 11.5624C99.9512 10.2774 100.825 9.28637 101.936 8.5894C103.047 7.89243 104.315 7.54395 105.742 7.54395C106.586 7.54395 107.378 7.66646 108.119 7.91149C108.865 8.15652 109.537 8.51589 110.136 8.98961C110.735 9.45789 111.236 10.0296 111.639 10.7048C112.042 11.3746 112.32 12.1396 112.472 12.9999Z" fill="black"/>
<path d="M119.176 24.7939C118.381 24.7939 117.659 24.6442 117.011 24.3447C116.363 24.0398 115.849 23.6015 115.468 23.0297C115.086 22.4526 114.896 21.7556 114.896 20.9388C114.896 20.2201 115.037 19.6375 115.321 19.191C115.604 18.739 115.982 18.3851 116.456 18.1292C116.93 17.8733 117.452 17.6827 118.024 17.5574C118.601 17.4268 119.181 17.3233 119.764 17.2471C120.526 17.1491 121.144 17.0756 121.618 17.0265C122.097 16.9721 122.445 16.8823 122.663 16.757C122.887 16.6318 122.998 16.414 122.998 16.1036V16.0383C122.998 15.2324 122.778 14.6062 122.337 14.1597C121.901 13.7132 121.239 13.49 120.352 13.49C119.432 13.49 118.71 13.6914 118.187 14.0944C117.665 14.4973 117.297 14.9275 117.085 15.3849L115.255 14.7314C115.582 13.9691 116.018 13.3756 116.562 12.9509C117.112 12.5207 117.711 12.2213 118.359 12.0525C119.012 11.8782 119.655 11.7911 120.286 11.7911C120.689 11.7911 121.152 11.8401 121.675 11.9381C122.203 12.0307 122.712 12.224 123.202 12.518C123.698 12.8121 124.109 13.2558 124.436 13.8493C124.762 14.4429 124.926 15.2378 124.926 16.2343V24.4999H122.998V22.801H122.9C122.769 23.0733 122.552 23.3646 122.247 23.675C121.942 23.9854 121.536 24.2494 121.03 24.4672C120.523 24.685 119.905 24.7939 119.176 24.7939ZM119.47 23.0624C120.232 23.0624 120.875 22.9127 121.397 22.6132C121.925 22.3137 122.323 21.9271 122.59 21.4534C122.862 20.9797 122.998 20.4814 122.998 19.9587V18.1945C122.916 18.2925 122.737 18.3824 122.459 18.464C122.187 18.5403 121.871 18.6083 121.512 18.6682C121.158 18.7227 120.812 18.7717 120.474 18.8153C120.142 18.8534 119.873 18.886 119.666 18.9133C119.165 18.9786 118.697 19.0848 118.261 19.2318C117.831 19.3734 117.482 19.5885 117.215 19.877C116.954 20.1602 116.823 20.5468 116.823 21.0368C116.823 21.7066 117.071 22.213 117.567 22.556C118.068 22.8936 118.702 23.0624 119.47 23.0624Z" fill="black"/>
<path d="M128.444 24.4999V11.9545H130.306V13.9147H130.469C130.731 13.2449 131.153 12.7249 131.735 12.3547C132.318 11.979 133.018 11.7911 133.835 11.7911C134.662 11.7911 135.351 11.979 135.901 12.3547C136.456 12.7249 136.889 13.2449 137.2 13.9147H137.33C137.652 13.2667 138.133 12.7522 138.776 12.371C139.418 11.9844 140.189 11.7911 141.087 11.7911C142.209 11.7911 143.127 12.1423 143.84 12.8447C144.553 13.5417 144.91 14.628 144.91 16.1036V24.4999H142.982V16.1036C142.982 15.1779 142.729 14.5164 142.223 14.1189C141.716 13.7214 141.12 13.5226 140.434 13.5226C139.552 13.5226 138.868 13.7894 138.384 14.3231C137.899 14.8512 137.657 15.521 137.657 16.3323V24.4999H135.697V15.9076C135.697 15.1943 135.465 14.6198 135.002 14.1842C134.54 13.7432 133.943 13.5226 133.214 13.5226C132.713 13.5226 132.245 13.656 131.809 13.9229C131.379 14.1897 131.03 14.5599 130.764 15.0336C130.502 15.5019 130.371 16.0437 130.371 16.659V24.4999H128.444Z" fill="black"/>
<path d="M148.434 29.2045V11.9545H150.296V13.9474H150.525C150.667 13.7296 150.863 13.4519 151.113 13.1143C151.369 12.7712 151.734 12.4663 152.208 12.1995C152.687 11.9272 153.335 11.7911 154.151 11.7911C155.208 11.7911 156.139 12.0552 156.945 12.5834C157.751 13.1115 158.38 13.8602 158.832 14.8295C159.283 15.7987 159.509 16.9421 159.509 18.2599C159.509 19.5885 159.283 20.7401 158.832 21.7148C158.38 22.684 157.753 23.4354 156.953 23.969C156.153 24.4972 155.23 24.7613 154.184 24.7613C153.378 24.7613 152.733 24.6279 152.248 24.3611C151.764 24.0888 151.391 23.7812 151.129 23.4381C150.868 23.0896 150.667 22.801 150.525 22.5724H150.362V29.2045H148.434ZM150.329 18.2272C150.329 19.1746 150.468 20.0104 150.746 20.7346C151.023 21.4534 151.429 22.017 151.963 22.4253C152.496 22.8283 153.15 23.0297 153.923 23.0297C154.729 23.0297 155.401 22.8174 155.94 22.3927C156.485 21.9625 156.893 21.3853 157.165 20.6611C157.443 19.9315 157.582 19.1202 157.582 18.2272C157.582 17.3451 157.446 16.5501 157.173 15.8422C156.907 15.1289 156.501 14.5654 155.956 14.1515C155.417 13.7323 154.74 13.5226 153.923 13.5226C153.139 13.5226 152.48 13.7214 151.946 14.1189C151.413 14.5109 151.01 15.0609 150.737 15.7687C150.465 16.4711 150.329 17.2906 150.329 18.2272Z" fill="black"/>
</svg>
