<svg width="42" height="42" viewBox="0 0 42 42" fill="none" xmlns="http://www.w3.org/2000/svg">
<mask id="mask0_287_2" style="mask-type:alpha" maskUnits="userSpaceOnUse" x="0" y="0" width="42" height="42">
<rect x="0.460449" width="41.0793" height="41.0793" fill="#D9D9D9"/>
</mask>
<g mask="url(#mask0_287_2)">
<path d="M14.1108 29.0979L21.0002 25.9742L27.8895 29.0979L28.5314 28.4561L21.0002 10.2699L13.469 28.4561L14.1108 29.0979ZM21.0002 37.6561C18.6324 37.6561 16.4073 37.2068 14.3248 36.3082C12.2423 35.4096 10.4308 34.1901 8.89033 32.6496C7.34986 31.1091 6.13032 29.2976 5.23171 27.2151C4.33309 25.1326 3.88379 22.9075 3.88379 20.5397C3.88379 18.172 4.33309 15.9468 5.23171 13.8643C6.13032 11.7818 7.34986 9.97036 8.89033 8.42988C10.4308 6.88941 12.2423 5.66987 14.3248 4.77126C16.4073 3.87265 18.6324 3.42334 21.0002 3.42334C23.368 3.42334 25.5931 3.87265 27.6756 4.77126C29.7581 5.66987 31.5696 6.88941 33.11 8.42988C34.6505 9.97036 35.8701 11.7818 36.7687 13.8643C37.6673 15.9468 38.1166 18.172 38.1166 20.5397C38.1166 22.9075 37.6673 25.1326 36.7687 27.2151C35.8701 29.2976 34.6505 31.1091 33.11 32.6496C31.5696 34.1901 29.7581 35.4096 27.6756 36.3082C25.5931 37.2068 23.368 37.6561 21.0002 37.6561ZM21.0002 34.2328C24.8228 34.2328 28.0607 32.9063 30.7137 30.2533C33.3668 27.6002 34.6933 24.3624 34.6933 20.5397C34.6933 16.7171 33.3668 13.4792 30.7137 10.8262C28.0607 8.17314 24.8228 6.84662 21.0002 6.84662C17.1775 6.84662 13.9397 8.17314 11.2866 10.8262C8.63359 13.4792 7.30707 16.7171 7.30707 20.5397C7.30707 24.3624 8.63359 27.6002 11.2866 30.2533C13.9397 32.9063 17.1775 34.2328 21.0002 34.2328Z" fill="black"/>
</g>
</svg>
