<svg width="163" height="30" viewBox="0 0 163 30" fill="none" xmlns="http://www.w3.org/2000/svg">
<path d="M15.5 2.5L19.3625 10.325L28 11.5875L21.75 17.675L23.225 26.275L15.5 22.2125L7.775 26.275L9.25 17.675L3 11.5875L11.6375 10.325L15.5 2.5Z" fill="white" stroke="white" stroke-linecap="round" stroke-linejoin="round"/>
<path d="M49 2.5L52.7337 10.325L61.0833 11.5875L55.0416 17.675L56.4675 26.275L49 22.2125L41.5325 26.275L42.9583 17.675L36.9166 11.5875L45.2662 10.325L49 2.5Z" fill="white" stroke="white" stroke-linecap="round" stroke-linejoin="round"/>
<path d="M82 2.5L85.7337 10.325L94.0833 11.5875L88.0416 17.675L89.4675 26.275L82 22.2125L74.5325 26.275L75.9583 17.675L69.9166 11.5875L78.2662 10.325L82 2.5Z" fill="white" stroke="white" stroke-linecap="round" stroke-linejoin="round"/>
<path d="M115 2.5L118.734 10.325L127.083 11.5875L121.042 17.675L122.467 26.275L115 22.2125L107.532 26.275L108.958 17.675L102.917 11.5875L111.266 10.325L115 2.5Z" fill="white" stroke="white" stroke-linecap="round" stroke-linejoin="round"/>
<path d="M148 2.5L151.734 10.325L160.083 11.5875L154.042 17.675L155.467 26.275L148 22.2125L140.532 26.275L141.958 17.675L135.917 11.5875L144.266 10.325L148 2.5Z" fill="white" stroke="white" stroke-linecap="round" stroke-linejoin="round"/>
</svg>
