<svg width="126" height="23" viewBox="0 0 126 23" fill="none" xmlns="http://www.w3.org/2000/svg">
<path d="M10.9999 2.23682L13.8324 7.97515L20.1666 8.90098L15.5833 13.3651L16.6649 19.6718L10.9999 16.6926L5.33492 19.6718L6.41659 13.3651L1.83325 8.90098L8.16742 7.97515L10.9999 2.23682Z" fill="#FFA033" stroke="#FFA033" stroke-linecap="round" stroke-linejoin="round"/>
<path d="M36.9999 2.23682L39.8324 7.97515L46.1666 8.90098L41.5833 13.3651L42.6649 19.6718L36.9999 16.6926L31.3349 19.6718L32.4166 13.3651L27.8333 8.90098L34.1674 7.97515L36.9999 2.23682Z" fill="#FFA033" stroke="#FFA033" stroke-linecap="round" stroke-linejoin="round"/>
<path d="M62.9999 2.23682L65.8324 7.97515L72.1666 8.90098L67.5833 13.3651L68.6649 19.6718L62.9999 16.6926L57.3349 19.6718L58.4166 13.3651L53.8333 8.90098L60.1674 7.97515L62.9999 2.23682Z" fill="#FFA033" stroke="#FFA033" stroke-linecap="round" stroke-linejoin="round"/>
<path d="M88.9999 2.23682L91.8324 7.97515L98.1666 8.90098L93.5833 13.3651L94.6649 19.6718L88.9999 16.6926L83.3349 19.6718L84.4166 13.3651L79.8333 8.90098L86.1674 7.97515L88.9999 2.23682Z" fill="#FFA033" stroke="#FFA033" stroke-linecap="round" stroke-linejoin="round"/>
<path d="M115 2.23682L117.832 7.97515L124.167 8.90098L119.583 13.3651L120.665 19.6718L115 16.6926L109.335 19.6718L110.417 13.3651L105.833 8.90098L112.167 7.97515L115 2.23682Z" fill="#FFA033" stroke="#FFA033" stroke-linecap="round" stroke-linejoin="round"/>
</svg>
