<svg width="36" height="36" viewBox="0 0 36 36" fill="none" xmlns="http://www.w3.org/2000/svg">
<rect width="36" height="36" rx="18" fill="black"/>
<path d="M26.2118 12.0442C25.1901 12.0442 24.2101 11.6228 23.4875 10.8724C22.7649 10.122 22.3588 9.10415 22.3588 8.04271C22.3588 7.96946 22.3633 7.8863 22.3686 7.78869C22.3695 7.7734 22.3703 7.75767 22.3712 7.74161C22.3773 7.62793 22.3833 7.49968 22.3804 7.37264C22.375 7.13588 22.3391 6.81998 22.1315 6.60439C21.9306 6.39574 21.6226 6.33645 21.3833 6.31429C21.1911 6.29647 20.9855 6.29949 20.8257 6.30186C20.7777 6.30257 20.7338 6.30318 20.6956 6.30318C20.6575 6.30318 20.614 6.30257 20.5667 6.30186C20.4111 6.29949 20.2146 6.29652 20.0317 6.3144C19.7996 6.33711 19.5083 6.39821 19.3097 6.60439C19.1021 6.81998 19.0662 7.13588 19.0608 7.37264C19.0579 7.49968 19.0639 7.62793 19.07 7.74161C19.0709 7.75767 19.0717 7.77334 19.0726 7.78869C19.0779 7.8863 19.0824 7.96946 19.0824 8.04271V22.2976C19.0824 23.0891 18.8564 23.8629 18.4329 24.521C18.0095 25.179 17.4077 25.6918 16.7037 25.9946C15.9998 26.2974 15.2252 26.3765 14.4779 26.2222C13.7306 26.0679 13.0441 25.6869 12.5052 25.1273C11.9663 24.5677 11.5993 23.8547 11.4506 23.0784C11.3019 22.302 11.3782 21.4974 11.6699 20.7661C11.9616 20.0349 12.4555 19.4099 13.0891 18.9703C13.7227 18.5307 14.4676 18.2961 15.2295 18.2961C15.2913 18.2961 15.3594 18.2988 15.4374 18.3018C15.4669 18.303 15.4977 18.3042 15.5301 18.3053C15.644 18.3093 15.7712 18.3121 15.8976 18.3056C16.1319 18.2936 16.4419 18.2479 16.6475 18.0345C16.8528 17.8212 16.8951 17.5059 16.9051 17.2664C16.9104 17.1379 16.9069 17.0085 16.9024 16.8928C16.9014 16.8648 16.9003 16.838 16.8992 16.8122C16.8957 16.7269 16.8926 16.6528 16.8926 16.5858C16.8926 16.5671 16.8927 16.5475 16.8927 16.5272C16.8931 16.3519 16.8937 16.1239 16.8655 15.9067C16.835 15.6703 16.7645 15.3886 16.5726 15.1893C16.3753 14.9845 16.0971 14.9241 15.8712 14.9028C15.7025 14.8869 15.5185 14.8904 15.3694 14.8932C15.3179 14.8942 15.2706 14.8952 15.2295 14.8952C13.8193 14.8952 12.4408 15.3294 11.2684 16.1429C10.096 16.9563 9.18225 18.1125 8.64272 19.465C8.10318 20.8176 7.96203 22.3058 8.23706 23.7416C8.51213 25.1775 9.19101 26.4964 10.188 27.5317C11.1851 28.567 12.4554 29.2721 13.8385 29.5578C15.2216 29.8435 16.6552 29.6968 17.9579 29.1365C19.2607 28.5761 20.3742 27.6272 21.1575 26.4099C21.9407 25.1926 22.3588 23.7615 22.3588 22.2976V14.274C23.5029 15.0435 24.8417 15.4527 26.2124 15.4451C26.285 15.4452 26.3673 15.4505 26.4646 15.4568C26.4753 15.4575 26.4861 15.4582 26.4971 15.4589C26.6046 15.4658 26.726 15.473 26.8464 15.4708C27.0717 15.4668 27.3719 15.4313 27.5799 15.2153C27.7756 15.012 27.8437 14.7053 27.8731 14.4582C27.901 14.2255 27.9004 13.9822 27.9 13.8033C27.9 13.7829 27.8999 13.7633 27.8999 13.7447C27.8999 13.7259 27.9 13.7064 27.9 13.6861C27.9004 13.5106 27.901 13.282 27.8728 13.0639C27.8423 12.8271 27.772 12.5443 27.5799 12.3448C27.3821 12.1395 27.0968 12.0779 26.8671 12.0551C26.6881 12.0374 26.4952 12.0404 26.3413 12.0428C26.2939 12.0435 26.2502 12.0442 26.2118 12.0442Z" fill="white"/>
</svg>
